<?xml version="1.0" standalone="no"?>
<!DOCTYPE svg PUBLIC "-//W3C//DTD SVG 20010904//EN"
 "http://www.w3.org/TR/2001/REC-SVG-20010904/DTD/svg10.dtd">
<svg version="1.0" xmlns="http://www.w3.org/2000/svg"
 width="512.000000pt" height="512.000000pt" viewBox="0 0 512.000000 512.000000"
 preserveAspectRatio="xMidYMid meet">
<metadata>
Created by potrace 1.16, written by Peter Selinger 2001-2019
</metadata>
<g transform="translate(0.000000,512.000000) scale(0.100000,-0.100000)"
fill="#000000" stroke="none">
<path d="M2220 5105 c-194 -27 -392 -83 -598 -170 -164 -69 -223 -110 -257
-179 -24 -49 -27 -65 -22 -116 10 -109 87 -211 185 -244 84 -29 124 -21 309
63 335 152 639 188 933 109 206 -56 369 -175 469 -346 167 -284 91 -630 -206
-942 l-85 -89 -1011 -3 c-950 -3 -1014 -4 -1052 -21 -217 -98 -201 -414 25
-492 14 -5 324 -11 689 -14 l664 -6 -75 -57 c-112 -84 -291 -241 -340 -298
l-43 -50 -440 0 c-421 0 -442 -1 -485 -21 -60 -27 -98 -64 -126 -124 -62 -130
-1 -293 131 -352 35 -16 77 -18 328 -21 158 -2 287 -5 287 -8 0 -2 -11 -41
-24 -87 -43 -147 -59 -285 -53 -447 7 -212 45 -360 135 -534 172 -335 468
-551 862 -633 120 -25 523 -25 660 0 281 52 647 179 757 263 130 99 85 328
-82 417 -61 33 -171 30 -250 -7 -260 -121 -547 -183 -805 -173 -257 10 -414
70 -554 210 -90 90 -129 155 -170 282 -69 217 -52 433 52 635 l38 75 1065 5
c997 5 1067 6 1104 23 129 58 192 220 134 347 -24 54 -50 83 -104 119 l-40 26
-819 3 -819 2 44 32 c24 18 149 110 276 205 l233 173 488 0 c306 0 510 4 547
11 131 24 214 122 215 254 0 104 -62 200 -155 242 -35 15 -78 18 -322 21 -156
2 -283 6 -283 9 0 2 18 36 40 74 127 217 189 452 177 673 -18 322 -137 587
-365 808 -203 197 -432 307 -737 354 -112 17 -396 17 -525 -1z"/>
</g>
</svg>
